# xmcd
# 
# Track frame offsets:
#     150
#     18519
#     36494
#     54913
#     72131
#     88717
#     103591
#     121681
#     135482
#     152500
#     171688
#     195065
#     211240
#     229363
#     251750
#     271915
# 
# Disc length: 3883
# 
# Revision: 2
# Processed by: cddbd v1.5.2PL0 Copyright (c) Steve Scherf et al.
# Submitted via: BonkEnc v1.0.6
# 
DISCID=d60f2910
DTITLE=Paula Fernandes - Passaro De Fogo
DYEAR=2008
DGENRE=Country
TTITLE0=Passaro de Fogo
TTITLE1=Chuva Chover
TTITLE2=Meu Eu Em Voce
TTITLE3=Sem Voce 
TTITLE4=Complicados Demais
TTITLE5=Espaco Sideral
TTITLE6=Apaixonados pela Lua
TTITLE7=Debaixo do Cacho
TTITLE8=Dança Menina
TTITLE9=Sede De Amor
TTITLE10=Quero Sim
TTITLE11=Vai
TTITLE12=Pra Que Inventaram O Amor
TTITLE13=Jeito De Mato
TTITLE14=Meu Em Em Voce (Acustico)
TTITLE15=Quando A Chuva Passar
EXTD=
EXTT0=
EXTT1=
EXTT2=
EXTT3=
EXTT4=
EXTT5=
EXTT6=
EXTT7=
EXTT8=
EXTT9=
EXTT10=
EXTT11=
EXTT12=
EXTT13=
EXTT14=
EXTT15=
PLAYORDER=
